<?xml version="1.0" encoding="iso-8859-1"?>
<!-- Generator: Adobe Illustrator 19.0.0, SVG Export Plug-In . SVG Version: 6.00 Build 0)  -->
<svg version="1.1" id="Capa_1" xmlns="http://www.w3.org/2000/svg" xmlns:xlink="http://www.w3.org/1999/xlink" x="0px" y="0px"
	 viewBox="0 0 512 512" style="enable-background:new 0 0 512 512;" xml:space="preserve">
<g>
	<path style="fill:#4DBBEB;" d="M352.408,491.948c-5.781,0-11.291-3.361-13.753-8.998c-3.317-7.592,0.147-16.435,7.739-19.751
		C428.772,427.206,482,345.875,482,255.997c-0.004-89.873-53.228-171.202-135.598-207.194c-7.592-3.317-11.057-12.16-7.739-19.751
		c3.317-7.592,12.16-11.06,19.751-7.739C451.71,62.079,511.996,154.198,512,255.996c0,101.804-60.289,193.926-153.594,234.693
		C356.451,491.544,354.413,491.948,352.408,491.948z"/>
	<path style="fill:#4DBBEB;" d="M352.413,378.768c-4.118,0-8.218-1.686-11.181-4.995c-5.525-6.173-5.002-15.655,1.171-21.181
		c27.452-24.575,43.196-59.783,43.196-96.596c0-36.812-15.744-72.019-43.196-96.594c-6.173-5.525-6.696-15.008-1.171-21.181
		c5.525-6.171,15.009-6.696,21.181-1.171c33.801,30.258,53.187,73.612,53.187,118.945c0,45.334-19.386,88.689-53.187,118.947
		C359.551,377.509,355.975,378.768,352.413,378.768z"/>
	<path style="fill:#4DBBEB;" d="M262.78,57.851c-5.042-2.556-11.093-2.059-15.65,1.284l-116.54,85.461H15c-8.283,0-15,6.716-15,15
		v192.801c0,8.284,6.717,15,15,15h115.59l116.539,85.463c2.623,1.924,5.738,2.904,8.873,2.904c2.313,0,4.637-0.535,6.778-1.62
		c5.042-2.554,8.22-7.728,8.22-13.38V71.231C271,65.579,267.822,60.406,262.78,57.851z"/>
</g>
<g>
	<path style="fill:#2488FF;" d="M482,255.998c0,89.878-53.228,171.208-135.605,207.201c-7.592,3.316-11.057,12.159-7.739,19.751
		c2.462,5.637,7.972,8.998,13.753,8.998c2.005,0,4.043-0.404,5.998-1.259C451.711,449.922,511.999,357.801,512,255.998H482z"/>
	<path style="fill:#2488FF;" d="M342.403,352.593c-6.173,5.525-6.696,15.008-1.171,21.181c2.963,3.31,7.063,4.995,11.181,4.995
		c3.562,0,7.138-1.26,10-3.824c33.801-30.258,53.187-73.613,53.187-118.946h-30C385.6,292.809,369.854,328.017,342.403,352.593z"/>
	<path style="fill:#2488FF;" d="M0,352.397c0,8.284,6.717,15,15,15h115.59l116.539,85.463c2.623,1.924,5.738,2.904,8.873,2.904
		c2.313,0,4.637-0.535,6.778-1.62c5.042-2.554,8.22-7.728,8.22-13.38V255.998H0V352.397z"/>
</g>
<g>
</g>
<g>
</g>
<g>
</g>
<g>
</g>
<g>
</g>
<g>
</g>
<g>
</g>
<g>
</g>
<g>
</g>
<g>
</g>
<g>
</g>
<g>
</g>
<g>
</g>
<g>
</g>
<g>
</g>
</svg>
