<?xml version="1.0" encoding="iso-8859-1"?>
<!-- Generator: Adobe Illustrator 19.0.0, SVG Export Plug-In . SVG Version: 6.00 Build 0)  -->
<svg version="1.1" id="Capa_1" xmlns="http://www.w3.org/2000/svg" xmlns:xlink="http://www.w3.org/1999/xlink" x="0px" y="0px"
	 viewBox="0 0 511.999 511.999" style="enable-background:new 0 0 511.999 511.999;" xml:space="preserve">
<path style="fill:#4DBBEB;" d="M262.781,57.853c-5.041-2.557-11.092-2.059-15.651,1.284L130.59,144.6H15c-8.284,0-15,6.716-15,15
	v192.801c0,8.284,6.716,15,15,15h115.59l116.541,85.461c2.621,1.924,5.737,2.904,8.871,2.904c2.313,0,4.638-0.535,6.779-1.62
	c5.041-2.554,8.219-7.728,8.219-13.38V71.233C271,65.58,267.822,60.408,262.781,57.853z"/>
<path style="fill:#FD3018;" d="M424.7,277.216l61.693,61.693c5.857,5.858,15.355,5.858,21.213,0c5.857-5.857,5.857-15.355,0-21.213
	l-61.693-61.693l61.693-61.693c5.857-5.857,5.857-15.355,0-21.213s-15.355-5.858-21.213,0L424.7,234.79l-61.693-61.693
	c-5.857-5.858-15.355-5.858-21.213,0c-2.929,2.929-4.393,6.768-4.393,10.606s1.465,7.678,4.393,10.606l61.692,61.693l-61.692,61.693
	c-2.929,2.929-4.393,6.768-4.393,10.606s1.465,7.678,4.393,10.606c5.857,5.858,15.355,5.858,21.213,0L424.7,277.216z"/>
<path style="fill:#2488FF;" d="M0,352.399c0,8.284,6.716,15,15,15h115.589l116.54,85.463c2.623,1.924,5.738,2.904,8.872,2.904
	c2.313,0,4.638-0.535,6.778-1.62c5.043-2.554,8.221-7.728,8.221-13.38V255.999H0V352.399z"/>
<path style="fill:#E61E14;" d="M424.7,277.216l61.693,61.693c5.857,5.858,15.355,5.858,21.213,0c5.857-5.857,5.857-15.355,0-21.213
	l-61.693-61.693h-42.427l-61.692,61.693c-2.929,2.929-4.393,6.768-4.393,10.606s1.465,7.678,4.393,10.606
	c5.857,5.858,15.355,5.858,21.213,0L424.7,277.216z"/>
<g>
</g>
<g>
</g>
<g>
</g>
<g>
</g>
<g>
</g>
<g>
</g>
<g>
</g>
<g>
</g>
<g>
</g>
<g>
</g>
<g>
</g>
<g>
</g>
<g>
</g>
<g>
</g>
<g>
</g>
</svg>
